<svg width="29" height="30" viewBox="0 0 29 30" fill="none" xmlns="http://www.w3.org/2000/svg">
<mask id="mask0_19_154" style="mask-type:alpha" maskUnits="userSpaceOnUse" x="0" y="0" width="29" height="30">
<rect y="0.5" width="29" height="29" fill="#D9D9D9"/>
</mask>
<g mask="url(#mask0_19_154)">
<path d="M14.5 25.875C13.0097 25.875 11.605 25.588 10.2859 25.0141C8.96684 24.4401 7.81389 23.6597 6.82708 22.6729C5.84028 21.6861 5.0599 20.5332 4.48594 19.2141C3.91198 17.895 3.625 16.4903 3.625 15C3.625 14.1139 3.72569 13.253 3.92708 12.4172C4.12847 11.5814 4.42049 10.796 4.80313 10.0609C5.18576 9.32587 5.64392 8.64115 6.1776 8.00677C6.71128 7.3724 7.31042 6.80347 7.975 6.3L16.1917 14.5167L14.5 16.2083L7.975 9.68333C7.37083 10.4083 6.89757 11.2189 6.55521 12.1151C6.21285 13.0113 6.04167 13.9729 6.04167 15C6.04167 17.3361 6.86736 19.3299 8.51875 20.9813C10.1701 22.6326 12.1639 23.4583 14.5 23.4583C16.8361 23.4583 18.8299 22.6326 20.4813 20.9813C22.1326 19.3299 22.9583 17.3361 22.9583 15C22.9583 12.8451 22.2686 10.9873 20.8891 9.42656C19.5095 7.8658 17.7826 6.94444 15.7083 6.6625V8.95833H13.2917V4.125H14.5C15.9903 4.125 17.395 4.41198 18.7141 4.98594C20.0332 5.5599 21.1861 6.34028 22.1729 7.32708C23.1597 8.31389 23.9401 9.46684 24.5141 10.7859C25.088 12.105 25.375 13.5097 25.375 15C25.375 16.4903 25.088 17.895 24.5141 19.2141C23.9401 20.5332 23.1597 21.6861 22.1729 22.6729C21.1861 23.6597 20.0332 24.4401 18.7141 25.0141C17.395 25.588 15.9903 25.875 14.5 25.875ZM14.5 22.25C14.1576 22.25 13.8707 22.1342 13.6391 21.9026C13.4075 21.671 13.2917 21.384 13.2917 21.0417C13.2917 20.6993 13.4075 20.4123 13.6391 20.1807C13.8707 19.9491 14.1576 19.8333 14.5 19.8333C14.8424 19.8333 15.1293 19.9491 15.3609 20.1807C15.5925 20.4123 15.7083 20.6993 15.7083 21.0417C15.7083 21.384 15.5925 21.671 15.3609 21.9026C15.1293 22.1342 14.8424 22.25 14.5 22.25ZM20.5417 16.2083C20.1993 16.2083 19.9123 16.0925 19.6807 15.8609C19.4491 15.6293 19.3333 15.3424 19.3333 15C19.3333 14.6576 19.4491 14.3707 19.6807 14.1391C19.9123 13.9075 20.1993 13.7917 20.5417 13.7917C20.884 13.7917 21.171 13.9075 21.4026 14.1391C21.6342 14.3707 21.75 14.6576 21.75 15C21.75 15.3424 21.6342 15.6293 21.4026 15.8609C21.171 16.0925 20.884 16.2083 20.5417 16.2083ZM8.45833 16.2083C8.11597 16.2083 7.82899 16.0925 7.5974 15.8609C7.3658 15.6293 7.25 15.3424 7.25 15C7.25 14.6576 7.3658 14.3707 7.5974 14.1391C7.82899 13.9075 8.11597 13.7917 8.45833 13.7917C8.80069 13.7917 9.08767 13.9075 9.31927 14.1391C9.55087 14.3707 9.66667 14.6576 9.66667 15C9.66667 15.3424 9.55087 15.6293 9.31927 15.8609C9.08767 16.0925 8.80069 16.2083 8.45833 16.2083Z" fill="#6252DF"/>
</g>
</svg>
