<svg width="27" height="27" viewBox="0 0 27 27" fill="none" xmlns="http://www.w3.org/2000/svg">
<g clip-path="url(#clip0_17_129)">
<path d="M20.25 4.5H19.125V3.375C19.125 3.07663 19.0065 2.79048 18.7955 2.5795C18.5845 2.36853 18.2984 2.25 18 2.25C17.7016 2.25 17.4155 2.36853 17.2045 2.5795C16.9935 2.79048 16.875 3.07663 16.875 3.375V4.5H10.125V3.375C10.125 3.07663 10.0065 2.79048 9.7955 2.5795C9.58452 2.36853 9.29837 2.25 9 2.25C8.70163 2.25 8.41548 2.36853 8.2045 2.5795C7.99353 2.79048 7.875 3.07663 7.875 3.375V4.5H6.75C5.85489 4.5 4.99645 4.85558 4.36351 5.48851C3.73058 6.12145 3.375 6.97989 3.375 7.875V21.375C3.375 22.2701 3.73058 23.1286 4.36351 23.7615C4.99645 24.3944 5.85489 24.75 6.75 24.75H20.25C21.1451 24.75 22.0036 24.3944 22.6365 23.7615C23.2694 23.1286 23.625 22.2701 23.625 21.375V7.875C23.625 6.97989 23.2694 6.12145 22.6365 5.48851C22.0036 4.85558 21.1451 4.5 20.25 4.5ZM6.75 6.75H7.875V7.875C7.875 8.17337 7.99353 8.45952 8.2045 8.6705C8.41548 8.88147 8.70163 9 9 9C9.29837 9 9.58452 8.88147 9.7955 8.6705C10.0065 8.45952 10.125 8.17337 10.125 7.875V6.75H16.875V7.875C16.875 8.17337 16.9935 8.45952 17.2045 8.6705C17.4155 8.88147 17.7016 9 18 9C18.2984 9 18.5845 8.88147 18.7955 8.6705C19.0065 8.45952 19.125 8.17337 19.125 7.875V6.75H20.25C20.5484 6.75 20.8345 6.86853 21.0455 7.0795C21.2565 7.29048 21.375 7.57663 21.375 7.875V12.375H5.625V7.875C5.625 7.57663 5.74353 7.29048 5.9545 7.0795C6.16548 6.86853 6.45163 6.75 6.75 6.75ZM20.25 22.5H6.75C6.45163 22.5 6.16548 22.3815 5.9545 22.1705C5.74353 21.9595 5.625 21.6734 5.625 21.375V14.625H21.375V21.375C21.375 21.6734 21.2565 21.9595 21.0455 22.1705C20.8345 22.3815 20.5484 22.5 20.25 22.5Z" fill="#6252DF"/>
<path d="M9 19.125C9.62132 19.125 10.125 18.6213 10.125 18C10.125 17.3787 9.62132 16.875 9 16.875C8.37868 16.875 7.875 17.3787 7.875 18C7.875 18.6213 8.37868 19.125 9 19.125Z" fill="#6252DF"/>
<path d="M18 16.875H13.5C13.2016 16.875 12.9155 16.9935 12.7045 17.2045C12.4935 17.4155 12.375 17.7016 12.375 18C12.375 18.2984 12.4935 18.5845 12.7045 18.7955C12.9155 19.0065 13.2016 19.125 13.5 19.125H18C18.2984 19.125 18.5845 19.0065 18.7955 18.7955C19.0065 18.5845 19.125 18.2984 19.125 18C19.125 17.7016 19.0065 17.4155 18.7955 17.2045C18.5845 16.9935 18.2984 16.875 18 16.875Z" fill="#6252DF"/>
</g>
<defs>
<clipPath id="clip0_17_129">
<rect width="27" height="27" fill="white"/>
</clipPath>
</defs>
</svg>
